<?xml version="1.0" encoding="UTF-8"?>
<svg id="Layer_1" data-name="Layer 1" xmlns="http://www.w3.org/2000/svg" viewBox="0 0 90 90">
  <defs>
    <style>
      .cls-1 {
        fill: #cae661;
        stroke-width: 0px;
      }
    </style>
  </defs>
  <path class="cls-1" d="M28.21,41.96c2.71.79,4.9-.73,6.36-2.91,2.94-4.39,4.36-10,4.3-15.25-.03-2.88-.38-6.12-1.6-8.76-1.13-2.43-3.82-4.09-6.35-3.11-.35.02-.72.13-1.09.38-7.77,5.16-11.18,15.82-7.1,24.37,1.07,2.26,2.99,4.55,5.48,5.27h0ZM25.9,25.51c.73-3.18,2.52-6.64,5.25-8.57,1.51-1.07,2.29.43,2.62,1.75.13.53.56,1.85.19,2.34-.38.49-1.17.07-1.74.18-2.51.48-3.25,4.23-3.71,6.3-.69,3.13-.22,6.34,2.01,8.76.1.11.21.2.32.28-.19.29-.4.55-.64.77-.79.7-1.59-.14-2.19-.79-2.6-2.79-2.93-7.47-2.12-11.01h0Z"/>
  <path class="cls-1" d="M71.64,24.58c-.64-2.92-1.91-5.7-3.76-8.06-1.5-1.91-4.2-4.29-6.73-2.75-1.99,1.21-2.95,3.78-3.88,5.79-1.46,3.14-2.33,6.56-2.59,10.02-.38,4.96.43,11.05,3.54,15.09,1.7,2.21,4.45,3.79,7.23,2.58,2.28-.99,3.45-3.29,4.3-5.48,2.11-5.42,3.15-11.44,1.89-17.19h0ZM66.23,23.47s-.05.05-.07.09c-2.86,3.99-3.54,9.36-1.75,13.93.32.83.93,1.37,1.62,1.56-.79,2.52-1.85,4.53-3.09,3.93-1.88-.89-2.62-3.9-3.09-5.73-.58-2.28-.78-4.61-.66-6.96.13-2.62.72-5.21,1.71-7.64.48-1.17,1.83-5.41,3.49-3.29.38.48.71,1,1.02,1.53.33.55.61,1.13.86,1.71-.03.16-.04.33-.04.51,0,.12,0,.23,0,.36h0Z"/>
  <path class="cls-1" d="M37.94,45.48c0,1.28,1.04,2.21,2.27,2.27,1.53.08,3.06.16,4.6.24,1.23.06,2.27-1.09,2.27-2.27,0-1.28-1.04-2.21-2.27-2.27-1.53-.08-3.06-.16-4.6-.24-1.23-.06-2.27,1.09-2.27,2.27Z"/>
  <path class="cls-1" d="M58.49,54.31c-10.6,2.98-23.23,3.19-31.33-5.44-2-2.14-5.21,1.08-3.21,3.21,9.21,9.82,23.61,10.02,35.75,6.61,2.81-.79,1.62-5.18-1.2-4.38Z"/>
  <path class="cls-1" d="M81.63,45.92c-2.8-.45-5.96-.29-8.5,1.05-1.98,1.05-3.88,3.32-2.55,5.6,1.06,1.82,4.07,2.27,5.97,2.48,3.21.35,10.16-.54,10.13-4.99-.02-2.66-2.82-3.79-5.04-4.14h0Z"/>
  <path class="cls-1" d="M15.83,42.81c-.18-.12-.36-.23-.54-.33-1.87-1.02-4.09-1.61-6.2-1.37-1.64.18-3.32.67-4.38,2.09-.94,1.25-2.04,3.64-.05,4.6,2.33,1.12,6,1.8,8.61.58,1.3-.31,2.54-.89,3.61-1.8,1.5-1.28.25-2.87-1.05-3.77h0Z"/>
</svg>